<?xml version="1.0" encoding="UTF-8"?>
<svg width="300px" height="103px" viewBox="0 0 300 103" version="1.1" xmlns="http://www.w3.org/2000/svg" xmlns:xlink="http://www.w3.org/1999/xlink">
    <!-- Generator: Sketch 41 (35326) - http://www.bohemiancoding.com/sketch -->
    <title>border</title>
    <desc>Created with Sketch.</desc>
    <defs></defs>
    <g id="Page-1" stroke="none" stroke-width="1" fill="none" fill-rule="evenodd">
        <g id="border">
            <g id="Page-1">
                <g id="bacon">
                    <g id="Group">
                        <path d="M211.23046,8.0286455 C195.61452,18.6382155 188.941,18.6374655 172.99804,8.0256455 C157.66964,-2.1770545 151.71949,-2.2753345 137.70117,7.4455655 C128.9185,13.5358455 125.20735,14.8803255 117,14.9455755 C108.454,15.0134755 105.57445,13.9341855 97.20996,7.5246755 C83.94783,-2.6377945 76.78593,-2.5351945 61.23047,8.0314955 C45.61453,18.6396055 38.941,18.6374055 22.99804,8.0254955 C12.93878,1.3300055 6.91291,-0.985414501 0,0.941515499 L0,46.5538455 C7.52005,44.7249955 14.24978,46.9086555 23.2588,53.1134255 C38.86732,63.8634355 44.53177,64.0366255 59.25293,54.2061955 C75.72632,43.2056355 84.41841,43.0430055 98.75976,53.4679055 C112.6867,63.5926955 121.08563,63.5937055 135.97264,53.4799055 C150.67072,43.4942355 159.17,43.4103755 173.25878,53.1136955 C188.86729,63.8637355 194.53177,64.0369055 209.25292,54.2064855 C225.72633,43.2059255 234.41841,43.0433355 248.75975,53.4681955 C262.6867,63.5899655 271.08562,63.5939855 285.97264,53.4801955 C291.27124,49.8804055 295.76037,47.5858555 299.99997,46.5544155 L299.99997,0.942085499 C296.37893,1.9515955 292.51996,4.1014955 287.70115,7.4430655 C278.91848,13.5333555 275.20735,14.8807455 266.99998,14.9459955 C258.45398,15.0138955 255.57736,13.9346355 247.21288,7.5251055 C240.58182,2.4438555 235.47345,-0.0740045012 230.08007,0.0016554988 C224.68668,0.0769054988 219.00818,2.7452955 211.23046,8.0286455 Z" id="path4147-path-copy-2" fill="#558DCA"></path>
                        <path d="M211.23046,30.0286455 C195.61452,40.6382155 188.941,40.6374655 172.99804,30.0256455 C157.66964,19.8229455 151.71949,19.7246655 137.70117,29.4455655 C128.9185,35.5358455 125.20735,36.8803255 117,36.9455755 C108.454,37.0134755 105.57445,35.9341855 97.20996,29.5246755 C83.94783,19.3622055 76.78593,19.4648055 61.23047,30.0314955 C45.61453,40.6396055 38.941,40.6374055 22.99804,30.0254955 C12.93878,23.3300055 6.91291,21.0145855 0,22.9415155 L0,68.5538455 C7.52005,66.7249955 14.24978,68.9086555 23.2588,75.1134255 C38.86732,85.8634355 44.53177,86.0366255 59.25293,76.2061955 C75.72632,65.2056355 84.41841,65.0430055 98.75976,75.4679055 C112.6867,85.5926955 121.08563,85.5937055 135.97264,75.4799055 C150.67072,65.4942355 159.17,65.4103755 173.25878,75.1136955 C188.86729,85.8637355 194.53177,86.0369055 209.25292,76.2064855 C225.72633,65.2059255 234.41841,65.0433355 248.75975,75.4681955 C262.6867,85.5899655 271.08562,85.5939855 285.97264,75.4801955 C291.27124,71.8804055 295.76037,69.5858555 299.99997,68.5544155 L299.99997,22.9420855 C296.37893,23.9515955 292.51996,26.1014955 287.70115,29.4430655 C278.91848,35.5333555 275.20735,36.8807455 266.99998,36.9459955 C258.45398,37.0138955 255.57736,35.9346355 247.21288,29.5251055 C240.58182,24.4438555 235.47345,21.9259955 230.08007,22.0016555 C224.68668,22.0769055 219.00818,24.7452955 211.23046,30.0286455 Z" id="path4147-path-copy" fill="#f27D42"></path>
                        <path d="M211.23046,48.4661982 C195.61452,57.0110497 188.941,57.0104456 172.99804,48.4637821 C157.66964,40.2466201 151.71949,40.1674662 137.70117,47.9965909 C128.9185,52.9016472 125.20735,53.9844791 117,54.0370309 C108.454,54.0917169 105.57445,53.2224666 97.20996,48.0603054 C83.94783,39.8755442 76.78593,39.9581774 61.23047,48.4684936 C45.61453,57.0121691 38.941,57.0103973 22.99804,48.4636613 C12.93878,43.0711744 6.91291,41.2063561 0,42.758288 L0,71.4401355 C7.52005,69.9671963 14.24978,71.7258963 23.2588,76.7231617 C38.86732,85.3811222 44.53177,85.5206079 59.25293,77.6032688 C75.72632,68.7435176 84.41841,68.6125368 98.75976,77.0086567 C112.6867,85.1630707 121.08563,85.1638841 135.97264,77.0183214 C150.67072,68.9759534 159.17,68.9084133 173.25878,76.7233792 C188.86729,85.3813639 194.53177,85.5208334 209.25292,77.6035023 C225.72633,68.7437511 234.41841,68.6128026 248.75975,77.0088903 C262.6867,85.160872 271.08562,85.1641097 285.97264,77.018555 C291.27124,74.1193167 295.76037,72.271307 299.99997,71.4405946 L299.99997,42.7587471 C296.37893,43.5717973 292.51996,45.3033073 287.70115,47.9945774 C278.91848,52.8996417 275.20735,53.9848174 266.99998,54.0373692 C258.45398,54.0920552 255.57736,53.222829 247.21288,48.0606517 C240.58182,43.968259 235.47345,41.9403974 230.08007,42.0013333 C224.68668,42.061939 219.00818,44.2110361 211.23046,48.4661982 Z" id="path4147-path" fill="#96FFFF"></path>
                        <path d="M211.23046,66.4128153 C195.61452,73.5656585 188.941,73.5651529 172.99804,66.4107927 C157.66964,59.5322563 151.71949,59.4659971 137.70117,66.0197098 C128.9185,70.1257026 125.20735,71.0321347 117,71.0761255 C108.454,71.1219028 105.57445,70.3942586 97.20996,66.0730448 C83.94783,59.221631 76.78593,59.2908027 61.23047,66.4147367 C45.61453,73.5665956 38.941,73.5651124 22.99804,66.4106916 C12.93878,61.8966736 6.91291,60.3356455 0,61.6347583 L0,92.3860372 C7.52005,91.1530487 14.24978,92.6252458 23.2588,96.8084263 C38.86732,104.055952 44.53177,104.172715 59.25293,97.5451586 C75.72632,90.1287147 84.41841,90.0190715 98.75976,97.0474124 C112.6867,103.873423 121.08563,103.874104 135.97264,97.0555027 C150.67072,90.3232853 159.17,90.2667479 173.25878,96.8086084 C188.86729,104.056155 194.53177,104.172904 209.25292,97.5453541 C225.72633,90.1289102 234.41841,90.019294 248.75975,97.047608 C262.6867,103.871582 271.08562,103.874293 285.97264,97.0556982 C291.27124,94.6287635 295.76037,93.0818058 299.99997,92.3864215 L299.99997,61.6351426 C296.37893,62.315742 292.51996,63.7651784 287.70115,66.0180244 C278.91848,70.1240239 275.20735,71.0324179 266.99998,71.0764086 C258.45398,71.122186 255.57736,70.394562 247.21288,66.0733347 C240.58182,62.6476177 235.47345,60.9501071 230.08007,61.0011161 C224.68668,61.0518488 219.00818,62.8508449 211.23046,66.4128153 Z" id="path4147-path-copy" fill="#f27D42"></path>
                    </g>
                </g>
            </g>
        </g>
    </g>
</svg>