<svg xmlns="http://www.w3.org/2000/svg" version="1.1" xmlns:xlink="http://www.w3.org/1999/xlink" xmlns:svgjs="http://svgjs.dev/svgjs" width="1440" height="560" preserveAspectRatio="none" viewBox="0 0 1440 560"><g mask="url(&quot;#SvgjsMask1000&quot;)" fill="none"><rect width="1440" height="560" x="0" y="0" fill="#1e3266"></rect><path d="M1560 560L0 560 L0 319.04Q38.15 285.19, 72 323.34Q115.07 294.41, 144 337.48Q188.53 310.01, 216 354.54Q260.1 326.64, 288 370.74Q307.52 318.26, 360 337.79Q404.41 262.2, 480 306.61Q531.04 237.65, 600 288.69Q662.91 279.61, 672 342.52Q698.99 297.51, 744 324.5Q795.48 255.98, 864 307.45Q890.72 262.17, 936 288.89Q994.84 275.73, 1008 334.57Q1077.58 284.14, 1128 353.72Q1153.74 259.46, 1248 285.19Q1323.87 241.06, 1368 316.92Q1398.4 275.32, 1440 305.72Q1494.6 240.32, 1560 294.92z" fill="#182f5d"></path><path d="M1560 560L0 560 L0 391.25Q49.27 368.52, 72 417.8Q121.46 395.26, 144 444.72Q154.1 382.82, 216 392.92Q288.02 344.94, 336 416.96Q338.63 347.59, 408 350.22Q449.6 319.82, 480 361.41Q546.79 356.21, 552 423Q600.15 351.15, 672 399.3Q729.66 384.97, 744 442.63Q797.53 376.16, 864 429.69Q876.93 370.63, 936 383.56Q966.48 342.04, 1008 372.53Q1088.75 333.28, 1128 414.03Q1169.26 383.28, 1200 424.54Q1269.65 374.19, 1320 443.84Q1362.83 366.67, 1440 409.5Q1494.36 343.86, 1560 398.21z" fill="#25467d"></path><path d="M1560 560L0 560 L0 461.33Q16.18 405.51, 72 421.69Q118.86 396.55, 144 443.41Q216.77 444.18, 216 516.95Q241.64 422.59, 336 448.23Q384.13 424.37, 408 472.5Q485.36 429.86, 528 507.21Q554.2 461.41, 600 487.61Q650.31 417.92, 720 468.23Q774.38 450.61, 792 504.99Q800.31 441.3, 864 449.61Q889.91 403.52, 936 429.44Q1028.79 402.23, 1056 495.02Q1089.83 408.85, 1176 442.68Q1227.4 374.08, 1296 425.48Q1349.54 407.02, 1368 460.56Q1422.11 442.67, 1440 496.78Q1475.8 412.58, 1560 448.38z" fill="#356cb1"></path><path d="M1464 560L0 560 L0 546.34Q32.05 458.39, 120 490.44Q170.29 468.73, 192 519.01Q258.17 513.18, 264 579.35Q287.98 531.33, 336 555.31Q371.29 470.6, 456 505.89Q526.93 456.82, 576 527.75Q619.05 498.8, 648 541.85Q714.05 487.9, 768 553.96Q798.54 464.5, 888 495.04Q934.37 469.41, 960 515.78Q1052.15 487.93, 1080 580.09Q1119.93 500.02, 1200 539.94Q1246.76 514.7, 1272 561.46Q1291.75 509.21, 1344 528.96Q1392.67 457.63, 1464 506.3z" fill="white"></path></g><defs><mask id="SvgjsMask1000"><rect width="1440" height="560" fill="#ffffff"></rect></mask></defs></svg>