<svg xmlns="http://www.w3.org/2000/svg" version="1.1" xmlns:xlink="http://www.w3.org/1999/xlink" xmlns:svgjs="http://svgjs.dev/svgjs" width="1440" height="560" preserveAspectRatio="none" viewBox="0 0 1440 560"><g mask="url(&quot;#SvgjsMask1376&quot;)" fill="none"><rect width="300" height="300" clip-path="url(&quot;#SvgjsClipPath1377&quot;)" x="945.2" y="190.45" fill="url(&quot;#SvgjsPattern1378&quot;)" transform="rotate(342.13, 1095.2, 340.45)"></rect><path d="M571.69 33.45a5.6 5.6 0 1 0-11.05 1.8 5.6 5.6 0 1 0 11.05-1.8zM555.9 36.02a5.6 5.6 0 1 0-11.06 1.8 5.6 5.6 0 1 0 11.06-1.8zM540.11 38.59a5.6 5.6 0 1 0-11.06 1.79 5.6 5.6 0 1 0 11.06-1.79zM524.31 41.15a5.6 5.6 0 1 0-11.05 1.8 5.6 5.6 0 1 0 11.05-1.8zM600.71 12.53a5.6 5.6 0 1 0-11.05 1.79 5.6 5.6 0 1 0 11.05-1.79zM584.92 15.09a5.6 5.6 0 1 0-11.06 1.8 5.6 5.6 0 1 0 11.06-1.8zM569.13 17.66a5.6 5.6 0 1 0-11.06 1.8 5.6 5.6 0 1 0 11.06-1.8zM553.33 20.23a5.6 5.6 0 1 0-11.05 1.79 5.6 5.6 0 1 0 11.05-1.79z" fill="rgba(200, 239, 249, 1)"></path><path d="M567.75 504.5 L611.6800000000001 449.13L544.1817058603016 431.28170586030154z" fill="rgba(242, 125, 66, 1)"></path><rect width="247.2" height="247.2" clip-path="url(&quot;#SvgjsClipPath1379&quot;)" x="3.99" y="250.08" fill="url(&quot;#SvgjsPattern1380&quot;)" transform="rotate(294.13, 127.59, 373.68)"></rect><path d="M590.11 564.16L602.84 562.73 607.02 574.83 619.75 573.4 623.94 585.51 636.66 584.08 640.85 596.18" stroke="rgba(2, 36, 73, 1)" stroke-width="1.48" stroke-dasharray="2, 2"></path><rect width="216.8" height="216.8" clip-path="url(&quot;#SvgjsClipPath1381&quot;)" x="378.93" y="118.22" fill="url(&quot;#SvgjsPattern1382&quot;)" transform="rotate(89.26, 487.33, 226.62)"></rect><path d="M178.25 170.41a5.6 5.6 0 1 0-4.6 10.21 5.6 5.6 0 1 0 4.6-10.21zM171.68 184.99a5.6 5.6 0 1 0-4.61 10.21 5.6 5.6 0 1 0 4.61-10.21zM165.1 199.58a5.6 5.6 0 1 0-4.6 10.21 5.6 5.6 0 1 0 4.6-10.21zM158.52 214.16a5.6 5.6 0 1 0-4.6 10.21 5.6 5.6 0 1 0 4.6-10.21zM176.82 134.66a5.6 5.6 0 1 0-4.6 10.21 5.6 5.6 0 1 0 4.6-10.21zM170.24 149.24a5.6 5.6 0 1 0-4.6 10.21 5.6 5.6 0 1 0 4.6-10.21zM163.67 163.83a5.6 5.6 0 1 0-4.61 10.21 5.6 5.6 0 1 0 4.61-10.21zM157.09 178.41a5.6 5.6 0 1 0-4.6 10.21 5.6 5.6 0 1 0 4.6-10.21zM175.39 98.91a5.6 5.6 0 1 0-4.61 10.21 5.6 5.6 0 1 0 4.61-10.21zM168.81 113.49a5.6 5.6 0 1 0-4.6 10.21 5.6 5.6 0 1 0 4.6-10.21zM162.24 128.08a5.6 5.6 0 1 0-4.61 10.21 5.6 5.6 0 1 0 4.61-10.21zM155.66 142.67a5.6 5.6 0 1 0-4.6 10.21 5.6 5.6 0 1 0 4.6-10.21z" stroke="rgba(242, 125, 66, 1)" stroke-width="1" stroke-dasharray="3, 2"></path><rect width="134.6" height="134.6" clip-path="url(&quot;#SvgjsClipPath1383&quot;)" x="1253.05" y="201.05" fill="url(&quot;#SvgjsPattern1384&quot;)" transform="rotate(289.44, 1320.35, 268.35)"></rect><path d="M198.4 123.73a5.6 5.6 0 1 0-8.79-6.94 5.6 5.6 0 1 0 8.79 6.94zM185.85 113.81a5.6 5.6 0 1 0-8.79-6.95 5.6 5.6 0 1 0 8.79 6.95zM173.3 103.88a5.6 5.6 0 1 0-8.79-6.94 5.6 5.6 0 1 0 8.79 6.94zM160.75 93.96a5.6 5.6 0 1 0-8.79-6.95 5.6 5.6 0 1 0 8.79 6.95zM233.42 131.04a5.6 5.6 0 1 0-8.78-6.95 5.6 5.6 0 1 0 8.78 6.95zM220.87 121.11a5.6 5.6 0 1 0-8.78-6.95 5.6 5.6 0 1 0 8.78 6.95zM208.32 111.19a5.6 5.6 0 1 0-8.78-6.95 5.6 5.6 0 1 0 8.78 6.95zM195.77 101.26a5.6 5.6 0 1 0-8.78-6.95 5.6 5.6 0 1 0 8.78 6.95z" fill="rgba(2, 36, 73, 1)"></path><rect width="313.2" height="313.2" clip-path="url(&quot;#SvgjsClipPath1385&quot;)" x="535.6" y="233.48" fill="url(&quot;#SvgjsPattern1386&quot;)" transform="rotate(155.55, 692.2, 390.08)"></rect><path d="M1355.41 412.38 L1295.74 390.12L1290.2039753047843 436.6210246952158z" stroke="rgba(200, 239, 249, 1)" stroke-width="1" stroke-dasharray="3, 2"></path><path d="M894.71 216.28a5.6 5.6 0 1 0 6.55 9.08 5.6 5.6 0 1 0-6.55-9.08zM904.06 229.26a5.6 5.6 0 1 0 6.55 9.09 5.6 5.6 0 1 0-6.55-9.09zM913.41 242.24a5.6 5.6 0 1 0 6.55 9.09 5.6 5.6 0 1 0-6.55-9.09zM922.76 255.23a5.6 5.6 0 1 0 6.55 9.08 5.6 5.6 0 1 0-6.55-9.08zM863.03 199.66a5.6 5.6 0 1 0 6.54 9.09 5.6 5.6 0 1 0-6.54-9.09zM872.38 212.64a5.6 5.6 0 1 0 6.54 9.09 5.6 5.6 0 1 0-6.54-9.09zM881.73 225.63a5.6 5.6 0 1 0 6.54 9.08 5.6 5.6 0 1 0-6.54-9.08zM891.08 238.61a5.6 5.6 0 1 0 6.54 9.09 5.6 5.6 0 1 0-6.54-9.09zM831.34 183.04a5.6 5.6 0 1 0 6.55 9.09 5.6 5.6 0 1 0-6.55-9.09zM840.69 196.03a5.6 5.6 0 1 0 6.55 9.08 5.6 5.6 0 1 0-6.55-9.08zM850.04 209.01a5.6 5.6 0 1 0 6.55 9.09 5.6 5.6 0 1 0-6.55-9.09zM859.39 221.99a5.6 5.6 0 1 0 6.55 9.09 5.6 5.6 0 1 0-6.55-9.09z" stroke="rgba(242, 125, 66, 1)" stroke-width="2.74" stroke-dasharray="3, 3"></path></g><defs><mask id="SvgjsMask1376"><rect width="1440" height="560" fill="#ffffff"></rect></mask><pattern x="0" y="0" width="6" height="6" patternUnits="userSpaceOnUse" id="SvgjsPattern1378"><path d="M3 1L3 5M1 3L5 3" stroke="rgba(85, 141, 202, 1)" fill="none" stroke-width="1"></path></pattern><clipPath id="SvgjsClipPath1377"><circle r="75" cx="1095.2" cy="340.45"></circle></clipPath><pattern x="0" y="0" width="10.3" height="10.3" patternUnits="userSpaceOnUse" id="SvgjsPattern1380"><path d="M5.15 1L5.15 9.3M1 5.15L9.3 5.15" stroke="rgba(242, 125, 66, 1)" fill="none" stroke-width="2.58"></path></pattern><clipPath id="SvgjsClipPath1379"><circle r="61.8" cx="127.59" cy="373.68"></circle></clipPath><pattern x="0" y="0" width="216.8" height="10.84" patternUnits="userSpaceOnUse" id="SvgjsPattern1382"><rect width="216.8" height="5.42" x="0" y="0" fill="rgba(2, 36, 73, 1)"></rect><rect width="216.8" height="5.42" x="0" y="5.42" fill="rgba(0, 0, 0, 0)"></rect></pattern><clipPath id="SvgjsClipPath1381"><circle r="54.2" cx="487.33" cy="226.62"></circle></clipPath><pattern x="0" y="0" width="134.6" height="13.46" patternUnits="userSpaceOnUse" id="SvgjsPattern1384"><rect width="134.6" height="6.73" x="0" y="0" fill="rgba(85, 141, 202, 1)"></rect><rect width="134.6" height="6.73" x="0" y="6.73" fill="rgba(0, 0, 0, 0)"></rect></pattern><clipPath id="SvgjsClipPath1383"><circle r="33.65" cx="1320.35" cy="268.35"></circle></clipPath><pattern x="0" y="0" width="8.7" height="8.7" patternUnits="userSpaceOnUse" id="SvgjsPattern1386"><path d="M4.35 1L4.35 7.699999999999999M1 4.35L7.699999999999999 4.35" stroke="rgba(85, 141, 202, 1)" fill="none" stroke-width="2.4"></path></pattern><clipPath id="SvgjsClipPath1385"><circle r="78.3" cx="692.2" cy="390.08"></circle></clipPath></defs></svg>